:FULLY-SPECIFIED
:FORCE-ALL-JOINTS-BE-3DOF
:DEGREES
1631
root -14.988 14.5898 19.3872 700.614 -71.3634 379.487
lfemur 13.853 -11.1951 -13.4785
ltibia 25.9303 0 0
lfoot -21.1412 29.2128 0
ltoes -44.5169 0 0
rfemur -52.4679 -14.7065 7.62164
rtibia 66.4139 0 0
rfoot -10.1639 10.4169 0
rtoes 4.88485 0 0
lowerback 12.9632 4.27238 -7.90373
upperback -0.28563 4.3859 -0.591567
thorax -8.15475 2.41841 2.92607
lowerneck 0.968541 -12.5734 -12.4794
upperneck 3.96834 -17.2463 9.61337
head 2.92535 -8.64393 4.16507
lclavicle 9.26765e-014 -1.67055e-014 0
lhumerus -71.879 -16.9966 104.206
lradius 104.054 0 0
lwrist 54.6435 0 0
lhand -11.4121 49.3552 0
lfingers 7.12502 0 0
lthumb 14.6155 78.6951 0
rclavicle 9.26765e-014 -1.67055e-014 0
rhumerus 47.086 -3.84356 -55.9465
rradius 18.9392 0 0
rwrist 23.8474 0 0
rhand -18.5952 -35.4955 0
rfingers 7.12502 0 0
rthumb 7.69609 -65.3401 0
1632
root -15.0003 14.5881 19.3928 700.811 -71.3719 379.295
lfemur 13.8823 -11.2563 -13.4539
ltibia 25.9308 0 0
lfoot -21.147 29.295 0
ltoes -44.414 0 0
rfemur -52.4252 -14.7366 7.64458
rtibia 66.4101 0 0
rfoot -10.266 10.4565 0
rtoes 4.89806 0 0
lowerback 12.949 4.25661 -7.85962
upperback -0.304944 4.37607 -0.559613
thorax -8.16569 2.41394 2.93803
lowerneck 0.995012 -12.6196 -12.4761
upperneck 3.92989 -17.3111 9.63925
head 2.91872 -8.67621 4.16976
lclavicle 9.23306e-014 -1.76219e-014 0
lhumerus -71.9326 -16.983 104.219
lradius 104.077 0 0
lwrist 54.6566 0 0
lhand -12.265 49.1809 0
lfingers 7.12502 0 0
lthumb 13.7943 78.5884 0
rclavicle 9.23306e-014 -1.76219e-014 0
rhumerus 47.0774 -3.86363 -56.0484
rradius 18.8796 0 0
rwrist 23.9266 0 0
rhand -18.5387 -35.385 0
rfingers 7.12502 0 0
rthumb 7.75061 -65.2276 0
1633
root -15.0127 14.5864 19.3983 701.024 -71.3831 379.089
lfemur 13.8712 -11.3228 -13.4267
ltibia 25.9969 0 0
lfoot -21.1531 29.3725 0
ltoes -44.3062 0 0
rfemur -52.3878 -14.756 7.66683
rtibia 66.3987 0 0
rfoot -10.3552 10.4931 0
rtoes 4.88318 0 0
lowerback 12.9371 4.24032 -7.81224
upperback -0.323209 4.3659 -0.527478
thorax -8.17646 2.40912 2.94835
lowerneck 1.02517 -12.6682 -12.4757
upperneck 3.88367 -17.3793 9.67245
head 2.91066 -8.71036 4.17716
lclavicle 9.17964e-014 -1.85032e-014 0
lhumerus -71.9806 -16.9775 104.232
lradius 104.1 0 0
lwrist 54.6707 0 0
lhand -13.0762 49.0073 0
lfingers 7.12502 0 0
lthumb 13.0132 78.4789 0
rclavicle 9.17964e-014 -1.85032e-014 0
rhumerus 47.065 -3.8799 -56.1331
rradius 18.8344 0 0
rwrist 23.9594 0 0
rhand -18.4733 -35.2866 0
rfingers 7.12502 0 0
rthumb 7.81372 -65.1267 0
1634
root -15.025 14.5848 19.4038 701.252 -71.3977 378.869
lfemur 13.8158 -11.3949 -13.3973
ltibia 26.1343 0 0
lfoot -21.1591 29.4442 0
ltoes -44.1937 0 0
rfemur -52.358 -14.7632 7.68803
rtibia 66.3802 0 0
rfoot -10.4306 10.5259 0
rtoes 4.83693 0 0
lowerback 12.9273 4.22368 -7.76179
upperback -0.340224 4.35557 -0.495424
thorax -8.18684 2.40402 2.95681
lowerneck 1.05957 -12.7191 -12.4785
upperneck 3.82876 -17.4508 9.71356
head 2.90093 -8.74631 4.1876
lclavicle 9.10827e-014 -1.93424e-014 0
lhumerus -72.0218 -16.9822 104.245
lradius 104.122 0 0
lwrist 54.685 0 0
lhand -13.8378 48.8346 0
lfingers 7.12502 0 0
lthumb 12.28 78.3665 0
rclavicle 9.10827e-014 -1.93424e-014 0
rhumerus 47.0488 -3.89097 -56.1966
rradius 18.8063 0 0
rwrist 23.9389 0 0
rhand -18.3982 -35.2025 0
rfingers 7.12502 0 0
rthumb 7.88621 -65.0397 0
1635
root -15.0374 14.5831 19.4093 701.495 -71.4164 378.638
lfemur 13.712 -11.4724 -13.3664
ltibia 26.3488 0 0
lfoot -21.1643 29.5093 0
ltoes -44.0768 0 0
rfemur -52.3382 -14.7568 7.7078
rtibia 66.3551 0 0
rfoot -10.4912 10.5543 0
rtoes 4.75601 0 0
lowerback 12.9197 4.20687 -7.70847
upperback -0.355791 4.34526 -0.463716
thorax -8.19664 2.39872 2.96323
lowerneck 1.09875 -12.7721 -12.4852
upperneck 3.76427 -17.5254 9.76314
head 2.88926 -8.78401 4.20137
lclavicle 9.01983e-014 -2.01324e-014 0
lhumerus -72.0546 -16.9991 104.259
lradius 104.141 0 0
lwrist 54.699 0 0
lhand -14.5415 48.6634 0
lfingers 7.12502 0 0
lthumb 11.6025 78.2513 0
rclavicle 9.01983e-014 -2.01324e-014 0
rhumerus 47.0289 -3.89547 -56.2348
rradius 18.7982 0 0
rwrist 23.8583 0 0
rhand -18.3125 -35.1352 0
rfingers 7.12502 0 0
rthumb 7.9689 -64.9687 0
1636
root -15.0497 14.5814 19.4148 701.752 -71.4401 378.396
lfemur 13.5557 -11.5555 -13.3345
ltibia 26.6463 0 0
lfoot -21.1683 29.5667 0
ltoes -43.9556 0 0
rfemur -52.3309 -14.7353 7.72579
rtibia 66.3241 0 0
rfoot -10.5358 10.5776 0
rtoes 4.63714 0 0
lowerback 12.9143 4.19007 -7.6525
upperback -0.369708 4.33514 -0.432619
thorax -8.20563 2.39329 2.9674
lowerneck 1.14325 -12.8271 -12.4962
upperneck 3.68927 -17.6028 9.82178
head 2.8754 -8.82341 4.21881
lclavicle 8.9152e-014 -2.08663e-014 0
lhumerus -72.0777 -17.0301 104.275
lradius 104.158 0 0
lwrist 54.7118 0 0
lhand -15.1793 48.4938 0
lfingers 7.12502 0 0
lthumb 10.9885 78.133 0
rclavicle 8.9152e-014 -2.08663e-014 0
rhumerus 47.0053 -3.89202 -56.2438
rradius 18.8128 0 0
rwrist 23.7107 0 0
rhand -18.2154 -35.0867 0
rfingers 7.12502 0 0
rthumb 8.06258 -64.916 0
1637
root -15.0621 14.5797 19.4204 702.024 -71.4694 378.147
lfemur 13.3428 -11.6441 -13.3022
ltibia 27.0325 0 0
lfoot -21.1704 29.6156 0
ltoes -43.8303 0 0
rfemur -52.3384 -14.6972 7.74164
rtibia 66.2877 0 0
rfoot -10.5634 10.5951 0
rtoes 4.47702 0 0
lowerback 12.911 4.17345 -7.59408
upperback -0.381777 4.32539 -0.402395
thorax -8.21361 2.38781 2.96911
lowerneck 1.19361 -12.8839 -12.512
upperneck 3.60286 -17.683 9.89006
head 2.8591 -8.86443 4.24022
lclavicle 8.79526e-014 -2.15372e-014 0
lhumerus -72.0898 -17.0774 104.292
lradius 104.172 0 0
lwrist 54.7228 0 0
lhand -15.7431 48.3263 0
lfingers 7.12502 0 0
lthumb 10.4457 78.0117 0
rclavicle 8.79526e-014 -2.15372e-014 0
rhumerus 46.9781 -3.87923 -56.2195
rradius 18.8529 0 0
rwrist 23.4894 0 0
rhand -18.1061 -35.0593 0
rfingers 7.12502 0 0
rthumb 8.16805 -64.8838 0
1638
root -15.0744 14.578 19.4259 702.308 -71.5053 377.891
lfemur 13.0693 -11.7384 -13.2701
ltibia 27.5131 0 0
lfoot -21.1701 29.655 0
ltoes -43.7012 0 0
rfemur -52.3631 -14.6411 7.75497
rtibia 66.2463 0 0
rfoot -10.5732 10.6061 0
rtoes 4.27236 0 0
lowerback 12.9098 4.15719 -7.53342
upperback -0.391796 4.3162 -0.373309
thorax -8.22037 2.38233 2.96817
lowerneck 1.25039 -12.9425 -12.5331
upperneck 3.50414 -17.7657 9.96854
head 2.8401 -8.90704 4.26591
lclavicle 8.66088e-014 -2.21379e-014 0
lhumerus -72.0893 -17.1429 104.311
lradius 104.18 0 0
lwrist 54.7313 0 0
lhand -16.2248 48.1612 0
lfingers 7.12502 0 0
lthumb 9.98217 77.8874 0
rclavicle 8.66088e-014 -2.21379e-014 0
rhumerus 46.9474 -3.85572 -56.1581
rradius 18.9213 0 0
rwrist 23.1874 0 0
rhand -17.9837 -35.0553 0
rfingers 7.12502 0 0
rthumb 8.28613 -64.8741 0
1639
root -15.0868 14.5763 19.4314 702.606 -71.5483 377.63
lfemur 12.7312 -11.8384 -13.2388
ltibia 28.094 0 0
lfoot -21.1668 29.6838 0
ltoes -43.5683 0 0
rfemur -52.4073 -14.5654 7.76542
rtibia 66.2006 0 0
rfoot -10.5639 10.61 0
rtoes 4.01987 0 0
lowerback 12.9107 4.14147 -7.47073
upperback -0.399566 4.30773 -0.345624
thorax -8.22569 2.37695 2.96438
lowerneck 1.31412 -13.0026 -12.5599
upperneck 3.3922 -17.8507 10.0578
head 2.81815 -8.95117 4.29621
lclavicle 8.51295e-014 -2.26615e-014 0
lhumerus -72.075 -17.2288 104.333
lradius 104.184 0 0
lwrist 54.7366 0 0
lhand -16.6163 47.9989 0
lfingers 7.12502 0 0
lthumb 9.60554 77.7599 0
rclavicle 8.51295e-014 -2.26615e-014 0
rhumerus 46.9132 -3.82012 -56.0554
rradius 19.0208 0 0
rwrist 22.798 0 0
rhand -17.8474 -35.077 0
rfingers 7.12502 0 0
rthumb 8.41762 -64.8893 0
1640
root -15.0552 14.5662 19.4499 702.932 -71.5935 377.348
lfemur 12.3102 -11.9473 -13.1978
ltibia 28.8171 0 0
lfoot -21.1594 29.6968 0
ltoes -43.4188 0 0
rfemur -52.4789 -14.4819 7.78561
rtibia 66.1749 0 0
rfoot -10.5421 10.62 0
rtoes 3.71279 0 0
lowerback 12.9134 4.12843 -7.39819
upperback -0.406724 4.30404 -0.320571
thorax -8.23137 2.37342 2.95101
lowerneck 1.38345 -13.067 -12.5925
upperneck 3.26486 -17.9415 10.1587
head 2.79313 -8.9983 4.33099
lclavicle 8.33435e-014 -2.3158e-014 0
lhumerus -72.0745 -17.3183 104.366
lradius 104.188 0 0
lwrist 54.751 0 0
lhand -16.9203 47.8404 0
lfingers 7.12502 0 0
lthumb 9.31324 77.6299 0
rclavicle 8.33435e-014 -2.3158e-014 0
rhumerus 46.8753 -3.7895 -55.9246
rradius 19.103 0 0
rwrist 22.3391 0 0
rhand -17.7109 -35.129 0
rfingers 7.12502 0 0
rthumb 8.54938 -64.9362 0
1641
root -15.0236 14.5561 19.4683 703.3 -71.6359 377.028
lfemur 11.7966 -12.0675 -13.1382
ltibia 29.7091 0 0
lfoot -21.1474 29.6907 0
ltoes -43.2423 0 0
rfemur -52.5813 -14.4018 7.82606
rtibia 66.188 0 0
rfoot -10.5143 10.6474 0
rtoes 3.34967 0 0
lowerback 12.9176 4.11958 -7.30932
upperback -0.41482 4.30816 -0.298817
thorax -8.23909 2.37308 2.92294
lowerneck 1.45666 -13.1378 -12.6302
upperneck 3.12147 -18.041 10.2712
head 2.76527 -9.04967 4.3698
lclavicle 8.11033e-014 -2.36758e-014 0
lhumerus -72.1116 -17.3958 104.417
lradius 104.199 0 0
lwrist 54.7851 0 0
lhand -17.1485 47.6862 0
lfingers 7.12502 0 0
lthumb 9.09382 77.4978 0
rclavicle 8.11033e-014 -2.36758e-014 0
rhumerus 46.8332 -3.77919 -55.7809
rradius 19.1256 0 0
rwrist 21.8332 0 0
rhand -17.5863 -35.2125 0
rfingers 7.12502 0 0
rthumb 8.66995 -65.0178 0
1642
root -14.9919 14.5459 19.4868 703.705 -71.6764 376.675
lfemur 11.1992 -12.1982 -13.0625
ltibia 30.7528 0 0
lfoot -21.1317 29.6679 0
ltoes -43.0423 0 0
rfemur -52.7102 -14.3227 7.88328
rtibia 66.2322 0 0
rfoot -10.4791 10.689 0
rtoes 2.93517 0 0
lowerback 12.9234 4.11412 -7.20629
upperback -0.423523 4.31872 -0.279781
thorax -8.24848 2.37534 2.88234
lowerneck 1.5337 -13.2144 -12.6726
upperneck 2.96342 -18.1482 10.3947
head 2.7348 -9.10489 4.4124
lclavicle 7.84531e-014 -2.42054e-014 0
lhumerus -72.1791 -17.4646 104.482
lradius 104.215 0 0
lwrist 54.8358 0 0
lhand -17.3067 47.5357 0
lfingers 7.12502 0 0
lthumb 8.94179 77.3637 0
rclavicle 7.84531e-014 -2.42054e-014 0
rhumerus 46.7872 -3.78517 -55.6236
rradius 19.101 0 0
rwrist 21.2805 0 0
rhand -17.47 -35.3243 0
rfingers 7.12502 0 0
rthumb 8.78262 -65.1302 0
1643
root -14.9603 14.5358 19.5052 704.143 -71.716 376.293
lfemur 10.5266 -12.3383 -12.9735
ltibia 31.9309 0 0
lfoot -21.1131 29.6309 0
ltoes -42.8226 0 0
rfemur -52.8614 -14.2423 7.95378
rtibia 66.2997 0 0
rfoot -10.4357 10.7412 0
rtoes 2.47394 0 0
lowerback 12.9309 4.11129 -7.09126
upperback -0.432501 4.33436 -0.262884
thorax -8.25917 2.37961 2.83139
lowerneck 1.61455 -13.2962 -12.7194
upperneck 2.79208 -18.2624 10.5284
head 2.70196 -9.16356 4.45859
lclavicle 7.54374e-014 -2.47375e-014 0
lhumerus -72.2699 -17.528 104.559
lradius 104.235 0 0
lwrist 54.9001 0 0
lhand -17.4005 47.3882 0
lfingers 7.12502 0 0
lthumb 8.8517 77.2272 0
rclavicle 7.54374e-014 -2.47375e-014 0
rhumerus 46.7371 -3.80342 -55.4519
rradius 19.0414 0 0
rwrist 20.6809 0 0
rhand -17.3586 -35.4611 0
rfingers 7.12502 0 0
rthumb 8.89069 -65.2696 0
1644
root -14.9287 14.5257 19.5237 704.609 -71.7554 375.885
lfemur 9.78752 -12.4868 -12.8739
ltibia 33.2263 0 0
lfoot -21.0925 29.582 0
ltoes -42.5869 0 0
rfemur -53.0305 -14.1582 8.03406
rtibia 66.3828 0 0
rfoot -10.3827 10.8005 0
rtoes 1.97064 0 0
lowerback 12.9403 4.11028 -6.96644
upperback -0.441423 4.35374 -0.247546
thorax -8.27079 2.3853 2.77226
lowerneck 1.69919 -13.3823 -12.7701
upperneck 2.60883 -18.3827 10.6715
head 2.66699 -9.22528 4.50814
lclavicle 7.21004e-014 -2.52626e-014 0
lhumerus -72.3768 -17.5894 104.645
lradius 104.258 0 0
lwrist 54.9747 0 0
lhand -17.4357 47.2433 0
lfingers 7.12502 0 0
lthumb 8.81807 77.0884 0
rclavicle 7.21004e-014 -2.52626e-014 0
rhumerus 46.6831 -3.82992 -55.2651
rradius 18.9593 0 0
rwrist 20.0347 0 0
rhand -17.2486 -35.6196 0
rfingers 7.12502 0 0
rthumb 8.99746 -65.4322 0
